<svg id="Capa_1" data-name="Capa 1" xmlns="http://www.w3.org/2000/svg" viewBox="0 0 93.21 97.92"><defs><style>.cls-1{fill:#2e58a6;}.cls-2{fill:#110b79;}.cls-3{fill:#4fa0ca;}.cls-4{fill:#fff;}</style></defs><path class="cls-1" d="M351.82,395.79a12.64,12.64,0,0,0-5.7-7c-8.78-5.47-16.87,3.73-21.61,10.35-4,5.61-8.13,11-12.4,16.46-3.91,5-7.72,10.08-11.2,15.38-2.7,4.11-5.56,8.51-6.9,13.3l-2.74-.48a16.51,16.51,0,0,0-2.08-.38c2.66-8.81,8.75-16.71,14.17-24S314,404,319,396.5c4-5.92,8.79-11.61,15.38-15C343.17,377,351,386.86,351.82,395.79Z" transform="translate(-259.86 -347.54)"/><path class="cls-2" d="M321.89,405.1c10.17,4,24,.21,28.44-10.41a9.3,9.3,0,0,1,0,8.59c-2.32,4.76-7.33,8-12.29,9.47-7,2-13.07,0-19.34-3.11a.23.23,0,0,1-.11-.3l2.22-2.8Z" transform="translate(-259.86 -347.54)"/><path class="cls-3" d="M344.8,389.36a12.37,12.37,0,0,1,1.68,1,12.86,12.86,0,0,1,3.14,3.15c-3.3,9.38-14.16,13.34-23.42,11.67C335.36,404.83,346.34,399.68,344.8,389.36Z" transform="translate(-259.86 -347.54)"/><path class="cls-1" d="M317.21,349.21c.56,2.93.78,4.34,1.13,5.88-1.69,0-3.38.12-5.06.07v-.09a38.58,38.58,0,0,0-1.18-6.44C317.59,348.52,317,348.16,317.21,349.21Z" transform="translate(-259.86 -347.54)"/><path class="cls-1" d="M311.91,398.18l-.47.57c-3-1.33-6.27-2.21-9.32-3.56.73-1.08,1.41-2.18,2.07-3.31C306.82,393.91,309.36,396,311.91,398.18Z" transform="translate(-259.86 -347.54)"/><path class="cls-2" d="M310.76,399.62c-.85,1.1-1.72,2.19-2.58,3.29-2.3-2.14-4.79-4.07-7.08-6.22l.42-.6C304.54,397.44,307.73,398.31,310.76,399.62Z" transform="translate(-259.86 -347.54)"/><path class="cls-3" d="M331.15,382.34a57.14,57.14,0,0,0-13,13.75c-4.84,7.21-9.73,14.94-15,21.87-5.47,7.29-11.6,15.14-14.59,23.91l-.52-2.18c-.25-1-.48-2-.73-3,4.07-15,17.43-26.8,26.43-39,4.36-5.92,13.26-16.38,22-17.7A15.24,15.24,0,0,0,331.15,382.34Z" transform="translate(-259.86 -347.54)"/><path class="cls-2" d="M287,389.74c-9.23.16-20.4,5.06-19,15.49a12.82,12.82,0,0,1-2.74-1.91,11.47,11.47,0,0,1-2-2.32C266.7,391.66,277.77,387.83,287,389.74Z" transform="translate(-259.86 -347.54)"/><path class="cls-2" d="M318.31,356.23c.33,0,.24-.06.12.35-.4,1.39-3.48,9.89-4.28,11.93a144.78,144.78,0,0,1-13.07,26.22,59.87,59.87,0,0,1-10.35,11.84c-3.39,3-8.14,6.9-13.05,8a25.21,25.21,0,0,0,8.67-6.56c5.53-6.11,10.21-13.63,14.09-20.85a169.21,169.21,0,0,0,8-17.18c1.58-4,3.07-8.6,4.82-13.74.89,0,1.8,0,2.68,0C316.5,356.2,318.21,356.23,318.31,356.23Z" transform="translate(-259.86 -347.54)"/><path class="cls-1" d="M262.55,399.83a9.46,9.46,0,0,1,.33-9c2.57-4.66,7.7-7.78,12.76-9,6.69-1.63,12.42.29,18.29,3.4-.62,1.14-1.25,2.27-1.91,3.38-.25.43-.53.86-.8,1.3C281.08,385.77,267.15,389.2,262.55,399.83Z" transform="translate(-259.86 -347.54)"/><path class="cls-3" d="M311.4,350.43a53.36,53.36,0,0,1,.7,5.34s-3.54,11.06-5.53,15.87a150.82,150.82,0,0,1-14.24,26.61c-3.94,5.85-8.78,13.58-15.92,15.75a8.71,8.71,0,0,1-5.72-.15l-.19-.08-.12,0c-5-2.06-8.57-8.51-9.17-14.52a12.42,12.42,0,0,0,4.56,5.91C280,415.58,292.66,390,297.86,379.78,302.76,370.12,308.26,360.92,311.4,350.43Z" transform="translate(-259.86 -347.54)"/><path class="cls-4" d="M289.19,443.47a.42.42,0,0,0,0,.15A.14.14,0,0,0,289.19,443.47ZM268,405.23c-1.36-10.43,9.81-15.33,19-15.49-9.26-1.91-20.33,1.92-23.79,11.26a11.47,11.47,0,0,0,2,2.32A12.82,12.82,0,0,0,268,405.23Zm1.14.47v0c3.39,1.24,6.94.47,10.32-2,4.46-3.27,8.09-8,11.1-12.72C281.66,389.76,267,394.08,269.13,405.7Zm24.8-20.46c-5.87-3.11-11.6-5-18.29-3.4-5.06,1.24-10.19,4.36-12.76,9a9.46,9.46,0,0,0-.33,9c4.6-10.63,18.53-14.06,28.67-9.91.27-.44.55-.87.8-1.3C292.68,387.51,293.31,386.38,293.93,385.24Zm50.87,4.12c1.54,10.32-9.44,15.47-18.6,15.82,9.26,1.67,20.12-2.29,23.42-11.67a12.86,12.86,0,0,0-3.14-3.15A12.37,12.37,0,0,0,344.8,389.36Zm-33.4-38.93c-3.14,10.49-8.64,19.69-13.54,29.35-5.2,10.25-17.82,35.8-32.09,25.34a12.42,12.42,0,0,1-4.56-5.91c.6,6,4.14,12.46,9.17,14.52l.12,0,.19.08a8.71,8.71,0,0,0,5.72.15c7.14-2.17,12-9.9,15.92-15.75a150.82,150.82,0,0,0,14.24-26.61c2-4.81,5.53-15.87,5.53-15.87A53.36,53.36,0,0,0,311.4,350.43Zm-3.22,52.48c.86-1.1,1.73-2.19,2.58-3.29-3-1.31-6.22-2.18-9.24-3.53l-.42.6C303.39,398.84,305.88,400.77,308.18,402.91Zm9.92-6.82a57.14,57.14,0,0,1,13-13.75,15.24,15.24,0,0,1,4.55-2.42c-8.7,1.32-17.6,11.78-22,17.7-9,12.23-22.36,24-26.43,39,.25,1,.48,2,.73,3l.52,2.18c3-8.77,9.12-16.62,14.59-23.91C308.37,411,313.26,403.3,318.1,396.09Zm-4.82-40.93c1.68,0,3.37-.1,5.06-.07-.35-1.54-.57-2.95-1.13-5.88-.2-1,.38-.69-5.11-.58a38.58,38.58,0,0,1,1.18,6.44Zm5.15,1.42c.12-.41.21-.35-.12-.35-.1,0-1.81,0-2.41,0-.88,0-1.79.06-2.68,0C311.47,361.38,310,366,308.4,370a169.21,169.21,0,0,1-8,17.18c-3.88,7.22-8.56,14.74-14.09,20.85a25.21,25.21,0,0,1-8.67,6.56c4.91-1.1,9.66-5,13.05-8a59.87,59.87,0,0,0,10.35-11.84,144.78,144.78,0,0,0,13.07-26.22C315,366.47,318,358,318.43,356.58ZM322.67,404c9,.95,23.3-3.57,21-15.1v0c-4.08-1.43-8,.21-11.61,3.3C328.13,395.56,325.56,399.87,322.67,404Zm-4.76-55.81c.54,2.4,1.06,4.81,1.6,7.21a.27.27,0,0,1,0,.09.57.57,0,0,1,0,.29,148,148,0,0,1-9.94,25.85c-1.51,3.11-3.09,6.27-4.84,9.32,2.66,2.06,5.25,4.21,7.83,6.38l1.2-1.53c5.79-7.48,18.19-21.2,28.9-15.87a.48.48,0,0,1,.25.28,12.43,12.43,0,0,1,4,2.89c4.62,4.86,7.87,12.9,5.06,19.33a25,25,0,0,1-4.61,6.36c-8.64,7.92-19.5,6.61-29.25,1.78a.65.65,0,0,0-.66.17c-3.43,4.28-6.91,8.52-10.16,12.95-4.69,6.38-10.42,13.57-12.43,21.39a.5.5,0,0,1-.53.37h-.13l-5.9-1a.53.53,0,0,1-.32-.23v0A.31.31,0,0,1,288,444V444c-.57-2.37-1.13-4.74-1.71-7.11,0,0,0-.06,0-.08a.56.56,0,0,1,0-.29c2.17-8.17,7.49-15.19,12.62-21.74,2.87-3.68,5.76-7.33,8.66-11-2.28-2.14-4.77-4.05-7-6.19-.65.88-1.31,1.74-2,2.58-6,7.11-18.11,20-28.5,14.56a22.92,22.92,0,0,1-2.35-1.47c-6.25-4.94-10.45-15.66-5.72-22.81a33.27,33.27,0,0,1,4.16-4.94c8.65-7.26,19.07-6.07,28.4-1.18,2.41-4.52,4.59-9.2,6.8-13.79,1.81-3.77,3.72-7.39,5.43-11.08A69.89,69.89,0,0,0,311,347.91a.53.53,0,0,1,.08-.17.32.32,0,0,1,.1-.1.5.5,0,0,1,.39-.1h.09c2,.28,3.93-.12,5.87.27A.52.52,0,0,1,317.91,348.19Zm.69,61.15a.23.23,0,0,0,.11.3c6.27,3.11,12.35,5.13,19.34,3.11,5-1.44,10-4.71,12.29-9.47a9.3,9.3,0,0,0,0-8.59c-4.4,10.62-18.27,14.41-28.44,10.41l-1.07,1.44Zm-14.41-17.46c-.66,1.13-1.34,2.23-2.07,3.31,3.05,1.35,6.28,2.23,9.32,3.56l.47-.57C309.36,396,306.82,393.91,304.19,391.88Zm20.32,7.3c4.74-6.62,12.83-15.82,21.61-10.35a12.64,12.64,0,0,1,5.7,7c-.78-8.93-8.65-18.75-17.4-14.27-6.59,3.37-11.41,9.06-15.38,15-5.07,7.54-10.25,15.71-15.68,23s-11.51,15.17-14.17,24a16.51,16.51,0,0,1,2.08.38l2.74.48c1.34-4.79,4.2-9.19,6.9-13.3,3.48-5.3,7.29-10.39,11.2-15.38C316.38,410.16,320.47,404.79,324.51,399.18Z" transform="translate(-259.86 -347.54)"/></svg>