<svg id="Capa_1" data-name="Capa 1" xmlns="http://www.w3.org/2000/svg" viewBox="0 0 161.57 161.57"><defs><style>.cls-1{fill:#fff;}.cls-2{fill:#2e58a6;}.cls-3{fill:#110b79;}.cls-4{fill:#4fa0ca;}</style></defs><rect class="cls-1" width="161.57" height="161.57" rx="8.68"/><path class="cls-2" d="M279.55,470.14c4.05-13.41,13.3-25.41,21.55-36.47s16.14-23.48,23.85-34.95c6-9,13.36-17.65,23.38-22.77,13.31-6.81,25.27,8.12,26.45,21.7a19.2,19.2,0,0,0-8.66-10.58c-13.35-8.32-25.64,5.66-32.87,15.73-6.13,8.54-12.35,16.7-18.84,25-6,7.58-11.74,15.33-17,23.39-4.1,6.25-8.45,12.94-10.48,20.22l-4.18-.74A25.79,25.79,0,0,0,279.55,470.14Z" transform="translate(-225.03 -317.94)"/><path class="cls-3" d="M281.9,414c-5.15,4.63-12.39,10.5-19.84,12.16,5-2,9.56-6,13.18-10,8.4-9.29,15.52-20.73,21.41-31.7a253.47,253.47,0,0,0,12.11-26.13c2.41-6,4.67-13.08,7.33-20.89,1.36,0,2.74,0,4.09-.05.9,0,3.51,0,3.65,0,.5,0,.37-.1.19.53-.62,2.11-5.3,15-6.52,18.14A219.24,219.24,0,0,1,297.64,396,91,91,0,0,1,281.9,414Z" transform="translate(-225.03 -317.94)"/><path class="cls-1" d="M372.52,396c-6.69,16.16-27.79,21.91-43.25,15.83-.54.73-1.07,1.47-1.62,2.19-1.12,1.43-2.24,2.84-3.37,4.26a.35.35,0,0,0,.17.46c9.53,4.73,18.78,7.79,29.39,4.73,7.55-2.19,15.18-7.16,18.7-14.41A14.15,14.15,0,0,0,372.52,396Zm-42.06,14.16c13.66,1.45,35.44-5.42,31.9-22.95v-.07c-6.2-2.18-12.23.31-17.65,5C338.77,397.29,334.85,403.84,330.46,410.13Zm5.36,1.8c14.09,2.54,30.6-3.49,35.62-17.74a19.57,19.57,0,0,0-4.77-4.8,19,19,0,0,0-2.55-1.52C366.45,403.56,349.77,411.39,335.82,411.93Zm-13.66-85.11c-.31-1.59.57-1.05-7.78-.88.07,0,1.8,7.07,1.81,9.79,0,0,0,.1,0,.14,2.56.08,5.14-.16,7.69-.12C323.35,333.42,323,331.27,322.16,326.82Zm-19.79,64.89c-1,1.7-2.05,3.38-3.15,5,4.63,2.06,9.54,3.39,14.17,5.42.23-.28.47-.59.71-.87C310.23,398,306.36,394.79,302.37,391.71ZM247.32,412c-2.06-15.86,14.92-23.3,28.94-23.55-14.07-2.91-30.91,2.92-36.16,17.12a17.93,17.93,0,0,0,3.05,3.53A19.51,19.51,0,0,0,247.32,412Zm50.34-13c3.49,3.28,7.28,6.21,10.78,9.46,1.31-1.66,2.62-3.33,3.91-5-4.6-2-9.46-3.32-14-5.38C298.1,398.41,297.87,398.71,297.66,399ZM278.6,467.72c4.54-13.34,13.86-25.27,22.18-36.36,7.94-10.53,15.37-22.3,22.74-33.26a87,87,0,0,1,19.84-20.9,23.26,23.26,0,0,1,6.92-3.68c-13.24,2-26.76,17.9-33.39,26.9-13.68,18.6-34,36.47-40.19,59.35.38,1.55.73,3.08,1.11,4.63C278.07,465.5,278.33,466.62,278.6,467.72ZM281.9,414a91,91,0,0,0,15.74-18,219.24,219.24,0,0,0,19.86-39.86c1.22-3.11,5.9-16,6.52-18.14.18-.63.31-.53-.19-.53-.14,0-2.75-.06-3.65,0-1.35,0-2.73.09-4.09.05-2.66,7.81-4.92,14.86-7.33,20.89a253.47,253.47,0,0,1-12.11,26.13c-5.89,11-13,22.41-21.41,31.7-3.62,4-8.22,8-13.18,10C269.51,424.54,276.75,418.67,281.9,414Zm2-27.3c1-1.69,2-3.4,2.91-5.13-8.92-4.73-17.64-7.66-27.81-5.17-7.69,1.88-15.5,6.62-19.41,13.71a14.37,14.37,0,0,0-.49,13.64c7-16.16,28.17-21.38,43.6-15.07C283.05,388.05,283.47,387.4,283.85,386.74Zm-4.3,83.41a1.55,1.55,0,0,0-.06.23A.21.21,0,0,0,279.55,470.15Zm2.07-79.79c-13.52-1.89-35.81,4.69-32.56,22.36v0c5.15,1.88,10.55.72,15.68-3.06C271.53,404.74,277.05,397.58,281.62,390.36Zm19.48,43.31c-8.25,11.06-17.5,23.06-21.55,36.47a25.79,25.79,0,0,1,3.16.56l4.18.74c2-7.28,6.38-14,10.48-20.22,5.3-8.06,11.09-15.81,17-23.39,6.49-8.33,12.71-16.49,18.84-25,7.23-10.07,19.52-24.05,32.87-15.73a19.2,19.2,0,0,1,8.66,10.58c-1.18-13.58-13.14-28.51-26.45-21.7-10,5.12-17.36,13.78-23.38,22.77C317.24,410.19,309.35,422.61,301.1,433.67Zm-8.36-60.36c-7.91,15.58-27.1,54.44-48.79,38.53a18.73,18.73,0,0,1-6.93-9c.9,9.13,6.29,18.95,13.94,22.08l.18.05.28.13a13.29,13.29,0,0,0,8.7.23c10.86-3.31,18.21-15.06,24.2-23.95A229,229,0,0,0,306,360.93c3-7.31,8.42-24.13,8.42-24.13a78.29,78.29,0,0,0-1.08-8.12C308.55,344.63,300.19,358.61,292.74,373.31Zm-5.3,99.84a1.23,1.23,0,0,1-.19,0l-9-1.59a.8.8,0,0,1-.48-.35s0,0,0,0a.77.77,0,0,1-.08-.19s0,0,0,0,0,0,0-.07c-.87-3.6-1.72-7.21-2.6-10.81a.57.57,0,0,1,0-.13.85.85,0,0,1,0-.45c3.3-12.41,11.39-23.09,19.19-33.05,4.36-5.59,8.76-11.14,13.17-16.71-3.48-3.25-7.25-6.15-10.72-9.4-1,1.33-2,2.64-3.06,3.91-9.08,10.82-27.54,30.35-43.33,22.14a33.31,33.31,0,0,1-3.58-2.23c-9.5-7.51-15.88-23.81-8.7-34.69.1-.14,3.76-5.36,6.33-7.51,13.15-11,29-9.24,43.18-1.79,3.67-6.87,7-14,10.34-21,2.77-5.74,5.66-11.24,8.25-16.85a105.75,105.75,0,0,0,6.58-17.52.53.53,0,0,1,.12-.25.49.49,0,0,1,.16-.16.73.73,0,0,1,.59-.14l.13,0c3,.44,6-.17,8.93.42a.79.79,0,0,1,.58.58q1.22,5.49,2.42,11s0,.09,0,.14a.76.76,0,0,1,0,.45,224.4,224.4,0,0,1-15.11,39.3c-2.3,4.73-4.71,9.54-7.37,14.17,4.05,3.14,8,6.4,11.92,9.7.6-.78,1.21-1.54,1.82-2.33,8.8-11.38,27.66-32.24,43.95-24.13a.77.77,0,0,1,.38.42,18.76,18.76,0,0,1,6.13,4.41c7,7.39,12,19.6,7.71,29.39a38.24,38.24,0,0,1-7,9.67c-13.15,12-29.66,10.05-44.48,2.7a1,1,0,0,0-1,.26c-5.21,6.52-10.51,12.95-15.45,19.69-7.13,9.71-15.84,20.64-18.9,32.52A.73.73,0,0,1,287.44,473.15Z" transform="translate(-225.03 -317.94)"/><path class="cls-4" d="M300.78,431.36c-8.32,11.09-17.64,23-22.18,36.36-.27-1.1-.53-2.22-.79-3.32-.38-1.55-.73-3.08-1.11-4.63,6.18-22.88,26.51-40.75,40.19-59.35,6.63-9,20.15-24.89,33.39-26.9a23.26,23.26,0,0,0-6.92,3.68,87,87,0,0,0-19.84,20.9C316.15,409.06,308.72,420.83,300.78,431.36Z" transform="translate(-225.03 -317.94)"/><path class="cls-3" d="M276.26,388.45c-14,.25-31,7.69-28.94,23.55a19.51,19.51,0,0,1-4.17-2.9,17.93,17.93,0,0,1-3.05-3.53C245.35,391.37,262.19,385.54,276.26,388.45Z" transform="translate(-225.03 -317.94)"/><path class="cls-4" d="M335.82,411.93c13.95-.54,30.63-8.37,28.3-24.06a19,19,0,0,1,2.55,1.52,19.57,19.57,0,0,1,4.77,4.8C366.42,408.44,349.91,414.47,335.82,411.93Z" transform="translate(-225.03 -317.94)"/><path class="cls-3" d="M324.28,418.25c1.13-1.42,2.25-2.83,3.37-4.26.55-.72,1.08-1.46,1.62-2.19,15.46,6.08,36.56.33,43.25-15.83a14.15,14.15,0,0,1,0,13.06c-3.52,7.25-11.15,12.22-18.7,14.41-10.61,3.06-19.86,0-29.39-4.73A.35.35,0,0,1,324.28,418.25Z" transform="translate(-225.03 -317.94)"/><path class="cls-3" d="M308.44,408.47c-3.5-3.25-7.29-6.18-10.78-9.46.21-.3.44-.6.65-.91,4.58,2.06,9.44,3.39,14,5.38C311.06,405.14,309.75,406.81,308.44,408.47Z" transform="translate(-225.03 -317.94)"/><path class="cls-2" d="M323.87,335.75c-2.55,0-5.13.2-7.69.12,0,0,0-.09,0-.14,0-2.72-1.74-9.75-1.81-9.79,8.35-.17,7.47-.71,7.78.88C323,331.27,323.35,333.42,323.87,335.75Z" transform="translate(-225.03 -317.94)"/><path class="cls-2" d="M299.22,396.73c1.1-1.64,2.14-3.32,3.15-5,4,3.08,7.86,6.32,11.73,9.57-.24.28-.48.59-.71.87C308.76,400.12,303.85,398.79,299.22,396.73Z" transform="translate(-225.03 -317.94)"/><path class="cls-4" d="M237,402.85a18.73,18.73,0,0,0,6.93,9c21.69,15.91,40.88-22.95,48.79-38.53,7.45-14.7,15.81-28.68,20.58-44.63a78.29,78.29,0,0,1,1.08,8.12S309,353.62,306,360.93a229,229,0,0,1-21.66,40.46c-6,8.89-13.34,20.64-24.2,23.95a13.29,13.29,0,0,1-8.7-.23l-.28-.13-.18-.05C243.31,421.8,237.92,412,237,402.85Z" transform="translate(-225.03 -317.94)"/><path class="cls-2" d="M239.05,403.79a14.37,14.37,0,0,1,.49-13.64c3.91-7.09,11.72-11.83,19.41-13.71,10.17-2.49,18.89.44,27.81,5.17-.94,1.73-1.9,3.44-2.91,5.13-.38.66-.8,1.31-1.2,2C267.22,382.41,246,387.63,239.05,403.79Z" transform="translate(-225.03 -317.94)"/></svg>