<svg id="Capa_1" data-name="Capa 1" xmlns="http://www.w3.org/2000/svg" viewBox="0 0 161.57 161.57"><defs><style>.cls-1{fill:#4fa0ca;}.cls-2{fill:#fff;}</style></defs><rect class="cls-1" width="161.57" height="161.57" rx="8.68"/><path class="cls-2" d="M372.52,396a14.15,14.15,0,0,1,0,13.06c-3.52,7.25-11.15,12.22-18.7,14.41-10.61,3.06-19.86,0-29.39-4.73a.35.35,0,0,1-.17-.46c1.13-1.42,2.25-2.83,3.37-4.26.55-.72,1.08-1.46,1.62-2.19C344.73,417.88,365.83,412.13,372.52,396Z" transform="translate(-225.03 -317.94)"/><path class="cls-2" d="M374.78,397.65a19.2,19.2,0,0,0-8.66-10.58c-13.35-8.32-25.64,5.66-32.87,15.73-6.13,8.54-12.35,16.7-18.84,25-6,7.58-11.74,15.33-17,23.39-4.1,6.25-8.45,12.94-10.48,20.22l-4.18-.74a25.79,25.79,0,0,0-3.16-.56c4.05-13.41,13.3-25.41,21.55-36.47s16.14-23.48,23.85-34.95c6-9,13.36-17.65,23.38-22.77C361.64,369.14,373.6,384.07,374.78,397.65Z" transform="translate(-225.03 -317.94)"/><path class="cls-2" d="M366.67,389.39a19.57,19.57,0,0,1,4.77,4.8c-5,14.25-21.53,20.28-35.62,17.74,13.95-.54,30.63-8.37,28.3-24.06A19,19,0,0,1,366.67,389.39Z" transform="translate(-225.03 -317.94)"/><path class="cls-2" d="M350.28,373.52a23.26,23.26,0,0,0-6.92,3.68,87,87,0,0,0-19.84,20.9c-7.37,11-14.8,22.73-22.74,33.26-8.32,11.09-17.64,23-22.18,36.36-.27-1.1-.53-2.22-.79-3.32-.38-1.55-.73-3.08-1.11-4.63,6.18-22.88,26.51-40.75,40.19-59.35C323.52,391.42,337,375.53,350.28,373.52Z" transform="translate(-225.03 -317.94)"/><path class="cls-2" d="M323.83,337.5c.5,0,.37-.1.19.53-.62,2.11-5.3,15-6.52,18.14A219.24,219.24,0,0,1,297.64,396a91,91,0,0,1-15.74,18c-5.15,4.63-12.39,10.5-19.84,12.16,5-2,9.56-6,13.18-10,8.4-9.29,15.52-20.73,21.41-31.7a253.47,253.47,0,0,0,12.11-26.13c2.41-6,4.67-13.08,7.33-20.89,1.36,0,2.74,0,4.09-.05C321.08,337.44,323.69,337.5,323.83,337.5Z" transform="translate(-225.03 -317.94)"/><path class="cls-2" d="M323.87,335.75c-2.55,0-5.13.2-7.69.12,0,0,0-.09,0-.14,0-2.72-1.74-9.75-1.81-9.79,8.35-.17,7.47-.71,7.78.88C323,331.27,323.35,333.42,323.87,335.75Z" transform="translate(-225.03 -317.94)"/><path class="cls-2" d="M313.32,328.68a78.29,78.29,0,0,1,1.08,8.12S309,353.62,306,360.93a229,229,0,0,1-21.66,40.46c-6,8.89-13.34,20.64-24.2,23.95a13.29,13.29,0,0,1-8.7-.23l-.28-.13-.18-.05c-7.65-3.13-13-12.95-13.94-22.08a18.73,18.73,0,0,0,6.93,9c21.69,15.91,40.88-22.95,48.79-38.53C300.19,358.61,308.55,344.63,313.32,328.68Z" transform="translate(-225.03 -317.94)"/><path class="cls-2" d="M314.1,401.28c-.24.28-.48.59-.71.87-4.63-2-9.54-3.36-14.17-5.42,1.1-1.64,2.14-3.32,3.15-5C306.36,394.79,310.23,398,314.1,401.28Z" transform="translate(-225.03 -317.94)"/><path class="cls-2" d="M312.35,403.48c-1.29,1.66-2.6,3.33-3.91,5-3.5-3.25-7.29-6.18-10.78-9.46.21-.3.44-.6.65-.91C302.89,400.16,307.75,401.49,312.35,403.48Z" transform="translate(-225.03 -317.94)"/><path class="cls-2" d="M286.76,381.61c-.94,1.73-1.9,3.44-2.91,5.13-.38.66-.8,1.31-1.2,2-15.43-6.31-36.61-1.09-43.6,15.07a14.37,14.37,0,0,1,.49-13.64c3.91-7.09,11.72-11.83,19.41-13.71C269.12,374,277.84,376.88,286.76,381.61Z" transform="translate(-225.03 -317.94)"/><path class="cls-2" d="M240.1,405.57c5.25-14.2,22.09-20,36.16-17.12-14,.25-31,7.69-28.94,23.55a19.51,19.51,0,0,1-4.17-2.9A17.93,17.93,0,0,1,240.1,405.57Z" transform="translate(-225.03 -317.94)"/></svg>